HIERARCHY
ROOT Hips
{
  OFFSET 43.0842 91.1655 101.099
  CHANNELS 6 Xposition Yposition Zposition Zrotation Xrotation Yrotation
  JOINT LeftUpLeg
  {
    OFFSET 8.64259 1.95398 -2.38835
    CHANNELS 3 Zrotation Xrotation Yrotation
    JOINT LeftLeg
    {
      OFFSET 43.7702 0 0
      CHANNELS 3 Zrotation Xrotation Yrotation
      JOINT LeftFoot
      {
        OFFSET 40.6238 0 0
        CHANNELS 3 Zrotation Xrotation Yrotation
        JOINT LeftToeBase
        {
          OFFSET 12.7242 0 0
          CHANNELS 3 Zrotation Xrotation Yrotation
          End Site
          {
            OFFSET 0 0 0
          }
        }
      }
    }
  }
  JOINT RightUpLeg
  {
    OFFSET -8.2249 1.95398 -2.59336
    CHANNELS 3 Zrotation Xrotation Yrotation
    JOINT RightLeg
    {
      OFFSET 43.5653 0 0
      CHANNELS 3 Zrotation Xrotation Yrotation
      JOINT RightFoot
      {
        OFFSET 40.6238 0 0
        CHANNELS 3 Zrotation Xrotation Yrotation
        JOINT RightToeBase
        {
          OFFSET 12.7242 0 0
          CHANNELS 3 Zrotation Xrotation Yrotation
          End Site
          {
            OFFSET 0 0 0
          }
        }
      }
    }
  }
  JOINT Spine
  {
    OFFSET 0.165834 0.87714 6.61349
    CHANNELS 3 Zrotation Xrotation Yrotation
    JOINT Spine1
    {
      OFFSET 7.38963 1.71661e-005 0
      CHANNELS 3 Zrotation Xrotation Yrotation
      JOINT Spine2
      {
        OFFSET 11.9445 1.14441e-005 0
        CHANNELS 3 Zrotation Xrotation Yrotation
        JOINT Spine3
        {
          OFFSET 14.7254 4.19617e-005 0
          CHANNELS 3 Zrotation Xrotation Yrotation
          JOINT Spine4
          {
            OFFSET 10.9679 0 0
            CHANNELS 3 Zrotation Xrotation Yrotation
            JOINT RightShoulder
            {
              OFFSET 2.46616 -1.6653 3.69651
              CHANNELS 3 Zrotation Xrotation Yrotation
              JOINT RightArm
              {
                OFFSET 13.0012 0 0
                CHANNELS 3 Zrotation Xrotation Yrotation
                JOINT RightForeArm
                {
                  OFFSET 28.7848 1.52588e-005 0
                  CHANNELS 3 Zrotation Xrotation Yrotation
                  JOINT RightHand
                  {
                    OFFSET 26.5688 1.52588e-005 0
                    CHANNELS 3 Zrotation Xrotation Yrotation
                    End Site
                    {
                      OFFSET 0 0 0
                    }
                  }
                }
              }
            }
            JOINT LeftShoulder
            {
              OFFSET 2.38034 -1.29275 -3.7523
              CHANNELS 3 Zrotation Xrotation Yrotation
              JOINT LeftArm
              {
                OFFSET 16.3182 6.10351e-005 0
                CHANNELS 3 Zrotation Xrotation Yrotation
                JOINT LeftForeArm
                {
                  OFFSET 27.0901 0 0
                  CHANNELS 3 Zrotation Xrotation Yrotation
                  JOINT LeftHand
                  {
                    OFFSET 24.5451 1.52588e-005 0
                    CHANNELS 3 Zrotation Xrotation Yrotation
                    End Site
                    {
                      OFFSET 0 0 0
                    }
                  }
                }
              }
            }
            JOINT Neck
            {
              OFFSET 5.0226 -0.0266342 0
              CHANNELS 3 Zrotation Xrotation Yrotation
              JOINT Head
              {
                OFFSET 6.69364 2.86102e-005 0
                CHANNELS 3 Zrotation Xrotation Yrotation
                End Site
                {
                  OFFSET 0 0 0
                }
              }
            }
          }
        }
      }
    }
  }
}
MOTION
Frames:	18
Frame Time:	0.0333333
-28.0591 88.4132 15.6303 95.2676 -20.303 92.699 -166.041 12.0136 105.049 -38.2557 22.0322 -3.63331 64.851 5.11368 18.6578 37.5506 10.1801 1.62049 173.087 17.5753 78.6816 -28.9512 -1.6605 -2.541 63.5206 -4.31736 0.28296 35.2218 -3.98329 1.44657 -0.354341 7.6873 -89.5942 11.5005 -0.515224 0.860977 -0.170605 -0.476832 0.882811 -22.7051 -0.750161 0.666335 -2.69242 -0.750151 0.666337 92.0907 -55.8444 -96.5421 15.4804 46.5805 -21.4674 -11.7569 -11.4573 -91.4626 -15.8608 -3.16903 5.49847 -94.2105 -49.1244 72.2215 -2.60478 13.3764 -65.3441 13.9152 8.66842 -99.8991 13.363 1.43611 0.107466 -26.3157 -15.6068 -9.04616 3.56018 -17.676 -14.4853 
-28.1241 88.0091 15.8567 95.2879 -20.6604 92.4625 -165.854 12.3678 105.082 -39.2284 21.5436 -3.72794 65.3147 5.72858 18.6831 37.753 10.4556 1.54905 173.375 18.7802 78.5849 -31.2873 -2.09305 -2.78545 64.4601 -5.2272 0.249948 35.2675 -3.58005 -0.0733459 -0.322491 7.71295 -89.5608 11.4489 -0.436503 0.9192 -0.222304 -0.395612 0.937515 -22.7562 -0.692562 0.745529 -2.74354 -0.692538 0.74554 92.1641 -55.5786 -96.4823 15.7031 46.4284 -21.3755 -12.0787 -11.577 -91.6753 -15.7275 -3.12985 5.6263 -94.4501 -49.3499 71.9299 -2.10694 13.1962 -65.3983 13.69 8.61995 -99.5934 13.7285 1.48895 0.110161 -26.1948 -15.8136 -8.96341 3.74236 -17.8969 -14.6591 
-28.2406 87.4131 16.2439 95.2653 -21.2138 91.8414 -165.559 12.8373 104.973 -40.4673 21.1187 -3.99811 65.6932 6.03585 18.5159 38.3362 11.2832 1.23852 173.883 20.7027 78.4452 -34.4475 -1.16276 -3.24992 65.6703 -6.33206 -0.103373 35.4095 -3.54476 -0.467239 -0.278089 7.72558 -89.4832 11.423 -0.312144 1.06102 -0.248394 -0.265149 1.07373 -22.7811 -0.616571 0.91818 -2.76844 -0.616587 0.918177 92.211 -55.4011 -96.4451 15.2862 45.4033 -20.6372 -12.2828 -11.5297 -92.0645 -17.7722 -3.75286 4.85756 -94.5425 -49.3803 71.8016 -1.61094 13.2728 -65.3244 14.3929 8.56505 -98.9505 14.6641 1.628 0.0392394 -26.0576 -15.7262 -8.8526 4.40094 -17.8394 -14.354 
-28.3272 86.6414 16.7928 95.0291 -21.8418 90.9425 -165.096 13.5254 104.921 -41.7743 22.6861 -4.50911 65.9217 6.25791 19.5486 38.4147 11.2645 1.52564 174.654 23.2733 78.108 -38.7926 -1.25935 -3.83464 67.1696 -7.64576 0.0137937 37.2058 -4.44944 -0.768393 -0.247001 7.7067 -89.3498 11.4598 -0.187681 1.31429 -0.211793 -0.129651 1.32127 -22.7424 -0.573981 1.19715 -2.72981 -0.573949 1.19715 92.1147 -55.6625 -96.539 14.472 43.8539 -19.8443 -13.7515 -11.4682 -92.5394 -20.361 -4.54738 4.63167 -94.4997 -49.5878 71.9251 -0.818551 13.0698 -65.0375 13.3189 9.06895 -98.388 16.128 1.77925 1.24863 -25.8695 -15.6404 -8.55927 4.45334 -17.7179 -14.3845 
-28.4474 85.9296 17.6476 94.3794 -22.1535 89.6392 -164.815 14.3391 104.601 -42.6791 22.9096 -4.85935 65.9643 6.22565 19.8633 38.7585 11.7314 1.38086 175.152 26.1471 77.7939 -43.0679 0.449726 -4.27265 69.3253 -9.44555 1.56174 36.717 -3.76951 -2.27791 -0.274679 7.64246 -89.1882 11.5872 -0.16625 1.63448 -0.0847241 -0.0941496 1.6402 -22.6127 -0.649753 1.509 -2.60003 -0.649741 1.509 92.3739 -54.8281 -96.3071 15.2365 42.0756 -19.781 -15.5498 -11.4935 -93.379 -23.1794 -5.50359 5.62329 -94.4841 -49.6105 71.9549 -0.497064 13.1916 -63.9749 15.2767 8.78812 -97.9123 16.5948 1.82591 1.69923 -25.326 -15.6152 -7.70168 4.11883 -17.5664 -14.8552 
-28.5973 85.5045 19.1654 94.3185 -21.8539 88.6228 -164.653 14.1707 104.808 -42.3562 23.6279 -5.00598 65.6792 5.52426 18.6182 38.4846 10.8135 2.87028 175.053 27.5101 77.962 -46.4006 1.48958 -4.45792 71.393 -11.1327 1.63545 37.415 -3.74396 -3.89419 -0.369426 7.61429 -88.9882 11.6436 -0.260489 2.04367 -0.0288976 -0.170302 2.05314 -22.5531 -0.862559 1.87101 -2.5404 -0.862549 1.87101 92.4124 -55.3907 -96.1558 14.1787 39.4575 -19.9778 -16.9499 -11.3467 -93.6702 -25.7247 -6.43779 6.78493 -94.2432 -49.7826 72.3608 0.735509 14.3555 -61.6432 15.7886 7.49518 -97.9303 17.5423 1.94244 2.60344 -25.0017 -15.4033 -7.1596 3.50627 -17.2193 -14.9963 
-28.6238 85.4331 21.5035 94.6213 -21.7531 88.7096 -165.409 12.9354 106.02 -41.14 21.782 -3.833 65.1905 4.11846 16.2895 38.7325 11.013 3.10794 175.127 26.8419 79.6054 -47.5871 1.52983 -4.4526 72.5619 -12.1875 -1.2458 40.4658 -5.95306 -1.9202 -0.385067 7.61874 -88.8758 11.6334 -0.239075 2.26528 -0.0395524 -0.13914 2.27359 -22.5609 -0.908682 2.08884 -2.54826 -0.908653 2.08885 92.5126 -54.6769 -96.1314 13.6025 35.6368 -19.4692 -17.6484 -10.0256 -94.6396 -29.325 -7.84623 8.2216 -93.4361 -49.5397 73.4915 0.965483 15.5403 -58.0731 18.2542 5.69076 -98.2723 17.8382 2.01611 1.94939 -24.2635 -15.4778 -6.58064 2.15919 -17.0485 -15.3298 
-28.659 85.815 24.74 94.979 -22.0395 90.8105 -166.722 12.2447 108.986 -40.3823 21.081 -1.5536 63.6557 1.00094 13.8383 38.2614 9.12106 6.14632 176.354 24.1138 83.8855 -46.6255 0.705795 -4.37532 72.8234 -12.5369 -4.38288 39.5337 -5.52158 -1.58958 -0.304887 7.59601 -88.8829 11.6772 -0.0824784 2.23496 0.00432806 0.0159757 2.23641 -22.5167 -0.750201 2.10696 -2.50405 -0.75019 2.10696 91.9274 -54.6506 -96.9889 13.9492 34.2586 -21.2713 -19.3067 -10.3999 -95.1916 -30.554 -8.22546 7.97593 -92.68 -49.6795 74.6531 2.5986 17.7023 -52.5497 20.8993 0.849291 -100.188 15.5308 1.62274 2.25056 -24.565 -15.1928 -5.86401 1.16987 -16.6459 -16.1112 
-28.867 86.1581 28.3442 94.7344 -21.2737 93.8146 -167.377 14.9995 112.47 -42.9177 23.0784 -0.303077 62.4688 -1.39041 16.5483 36.5562 2.95629 13.3987 177.913 21.8819 89.2099 -45.8577 -3.88468 -3.73514 71.2823 -10.6966 -11.9549 38.5503 -5.37394 7.47749e-005 -0.183723 7.51681 -89.0134 11.8351 0.0986542 1.95684 0.162655 0.184681 1.95059 -22.3612 -0.493909 1.89607 -2.34852 -0.493903 1.89607 92.4626 -53.2817 -96.4442 13.0579 33.5304 -22.0385 -21.0917 -10.5761 -97.1919 -31.6827 -8.90583 9.66694 -91.8401 -49.2132 75.7893 3.62858 20.0024 -48.6514 21.7423 -4.30888 -100.972 14.2247 1.42553 2.01806 -24.031 -15.3932 -5.89767 -0.277363 -16.6514 -16.9922 
-29.5515 86.3421 31.4301 94.8633 -18.2895 95.3397 -167.685 21.2177 111.851 -51.8773 25.3968 -0.282179 62.7928 -0.147274 17.7383 37.1838 2.8134 15.2294 178.076 20.6034 92.7713 -45.7132 -4.1017 -2.83004 70.8542 -9.28116 -16.259 37.7064 -5.10069 0.71149 -0.190084 7.53142 -88.8614 11.8044 0.157261 2.25299 0.131585 0.256248 2.24389 -22.3885 -0.526943 2.19617 -2.37587 -0.526959 2.19616 93.1264 -50.1524 -95.9904 12.9519 34.4704 -20.5109 -19.0808 -10.6141 -99.1696 -33.0185 -9.4843 10.2158 -90.1455 -47.5492 77.9673 4.86904 18.4769 -48.9962 22.0161 -4.74036 -101.359 16.4144 1.72515 3.26413 -23.9566 -16.1732 -6.84802 -1.69426 -17.3476 -19.2235 
-30.2984 86.515 33.8557 95.4312 -14.4183 96.7008 -166.208 28.2263 106.861 -64.4343 30.0757 -0.823361 63.153 1.5959 19.9027 39.3977 6.93596 14.1481 177.053 19.6109 95.2521 -46.2696 -4.34163 -1.31413 71.2454 -7.85668 -18.2261 35.9939 -3.8009 -0.685694 -0.10635 7.71921 -88.6253 11.4231 0.430266 2.69609 -0.25057 0.548448 2.67455 -22.7635 -0.399601 2.7008 -2.75087 -0.399604 2.70079 93.9819 -45.1044 -95.5206 11.9592 34.5602 -13.2254 -9.85893 -9.15755 -100.641 -34.5202 -10.1144 10.5984 -88.9038 -45.4053 79.422 6.60088 14.5344 -54.4292 19.8255 0.25782 -100.069 17.7532 1.93942 3.52991 -24.3451 -16.6916 -9.64785 -1.53149 -18.1295 -20.0548 
-30.6506 88.0341 36.7183 95.1187 -11.0393 99.5631 -161.02 32.7691 100.612 -70.2579 29.1987 -2.74199 64.1254 3.59813 16.2771 41.3578 10.6265 12.5842 176.265 18.9796 98.9341 -45.4863 -2.78509 0.840865 69.1288 -5.06538 -13.8588 36.6857 -3.52314 -3.13765 -0.0490905 7.75782 -88.6286 11.3421 0.541709 2.6797 -0.331444 0.659073 2.65328 -22.8445 -0.288377 2.71862 -2.83185 -0.288367 2.71863 94.7548 -42.2338 -94.7256 7.99935 29.9134 -2.14148 -2.08597 -6.56181 -103.837 -36.5502 -11.1744 11.9711 -88.7099 -44.4283 79.519 9.30261 15.0712 -59.6952 18.3528 2.58887 -95.1977 18.2404 2.0311 3.51216 -27.9588 -16.1813 -12.6416 0.395323 -18.6915 -21.1761 
-30.8948 90.1346 40.0179 95.2298 -7.15562 105.879 -159.441 34.1428 99.6706 -69.7144 31.2693 -3.65719 62.8117 1.58428 9.83614 41.277 11.2025 10.9423 173.419 21.0713 103.889 -50.0557 -2.2913 4.17782 59.4956 2.92792 -0.549539 36.5063 -3.50167 -2.85084 -0.305605 8.01967 -88.9505 10.8323 -0.123724 2.09883 -0.840337 -0.0312332 2.10223 -23.3633 -0.748679 1.9647 -3.35068 -0.748685 1.96471 95.338 -42.9944 -93.6124 8.31794 27.4337 3.86192 2.16915 -5.49849 -105.789 -38.6664 -12.7708 15.1008 -88.9163 -42.9924 78.8649 9.54117 16.9276 -62.6513 16.026 6.9403 -89.2071 21.331 2.57085 1.89104 -30.912 -14.0893 -16.906 3.20817 -17.9705 -20.1378 
-31.6905 92.4974 42.7158 96.9351 -3.64256 113.016 -163.868 30.0298 103.789 -59.1798 25.6201 -2.8837 56.936 -6.46174 3.06278 38.6974 9.29598 7.10343 172.431 25.3243 107.479 -57.0489 -7.35756 4.34576 52.8415 5.80572 9.60577 32.2024 -0.282507 -4.96199 -0.735018 8.53035 -89.343 9.82027 -1.16741 1.39129 -1.85094 -1.10509 1.4413 -24.3871 -1.53157 0.976112 -4.3744 -1.53157 0.976113 96.0912 -45.0259 -92.0626 11.3671 26.1919 4.47345 9.45097 -6.4049 -103.654 -41.2643 -14.278 16.6015 -89.6225 -42.0687 77.495 9.02092 19.9671 -61.6744 15.2922 9.24732 -78.496 23.0724 2.83898 -0.287808 -32.6524 -11.4563 -18.7143 5.49204 -16.1739 -18.6188 
-31.916 92.3133 45.132 97.448 -0.970011 119.468 -166.758 24.8264 108.639 -51.3361 27.3211 -2.60725 63.5714 2.50243 16.5262 34.5451 4.94302 4.55372 168.673 33.5007 109.395 -73.7961 -10.9849 1.65381 58.2276 1.80812 5.41415 37.5211 -4.42405 -1.31951 -1.25126 8.80126 -89.574 9.28076 -2.30416 1.0119 -2.38865 -2.25738 1.11236 -24.9394 -2.50168 0.272256 -4.92674 -2.5017 0.272252 95.8532 -47.8401 -92.0727 12.0093 24.3542 5.97756 16.0607 -6.04732 -100.976 -42.024 -14.8075 17.2966 -89.3628 -41.723 77.837 11.3289 26.2158 -59.9876 17.0132 8.98005 -65.0198 24.9768 3.05247 -2.12015 -33.4948 -9.01084 -18.8471 6.03774 -13.9379 -17.9256 
-32.9503 93.4836 47.0455 96.0866 -0.824251 125.673 -168.083 23.7708 113.671 -43.3272 25.6122 -1.3406 64.9889 6.42499 23.1769 32.9138 2.98215 4.16477 166.438 44.794 109.606 -89.2019 -5.298 -2.72476 63.9863 -2.88225 4.64559 40.6432 -5.96503 -2.35618 -1.43178 8.77663 -89.8578 9.32615 -2.7912 0.486643 -2.34194 -2.76709 0.609109 -24.9009 -2.80832 -0.375394 -4.88826 -2.80833 -0.375412 95.4396 -50.0984 -92.428 9.94469 22.3611 8.6157 20.904 -4.55237 -98.6133 -42.8254 -15.8349 19.5269 -90.4389 -43.9893 76.6553 11.0471 28.4737 -54.5985 16.6088 12.3144 -57.4411 28.622 3.53228 -1.82884 -31.5313 -8.16415 -19.6716 3.19576 -12.3301 -16.5431 
-33.6659 94.9401 49.7442 93.3597 -1.21638 133.602 -169.757 29.6448 123.194 -41.0138 25.1742 0.023016 65.3388 7.07212 21.5967 32.7565 3.54581 2.78974 169.89 54.5036 104.456 -100.788 -4.41039 -5.87881 70.7744 -8.43554 -0.804051 45.3298 -7.85169 -6.55543 -1.4817 8.65556 -90.3876 9.5594 -3.12888 -0.529292 -2.10781 -3.14913 -0.390953 -24.6681 -2.82509 -1.44586 -4.65541 -2.82505 -1.44587 95.9858 -50.6006 -91.522 8.60998 19.6909 10.8589 26.6814 -1.33477 -95.2582 -42.2275 -16.1663 21.6591 -90.832 -45.2823 76.3548 4.5056 28.372 -42.0554 18.0947 14.9948 -62.1716 29.9544 3.8435 0.269197 -29.6717 -7.49925 -21.6456 1.15233 -11.2253 -15.7554 
-33.7411 97.3127 52.618 90.8083 -2.50998 142.626 -170.989 37.9169 135.455 -36.6433 19.954 -0.952806 65.9514 6.88932 13.0278 33.2355 3.46077 4.08644 -175.906 59.1178 88.6491 -104.362 0.520851 -7.82384 72.8191 -10.9558 -5.40923 52.0596 -12.0364 -3.55082 -1.26953 8.41846 -90.9502 10.0148 -2.96221 -1.64035 -1.65362 -3.03151 -1.50833 -24.1991 -2.33234 -2.45485 -4.18642 -2.33233 -2.45486 96.19 -52.7682 -90.9623 4.83505 15.1392 14.7395 33.5938 1.74019 -93.837 -42.367 -16.3842 22.1524 -89.9576 -45.077 77.6846 -2.20085 30.3528 -28.1948 18.6766 11.3451 -70.1035 31.3301 4.24795 2.65778 -29.589 -6.29554 -25.7807 0.573823 -10.4767 -15.1695 
